<svg xmlns="http://www.w3.org/2000/svg" viewBox="8.7 383.2 1166.4 137.2" role="img" aria-label="Vegas del Verde">
<path fill="#4A7D7B" fill-rule="evenodd" d="m363.8 513.5c-2.2-.3-6.5-1.4-9.6-2.4-1.4-.4-3.2-1-4-1.2-4.2-1.3-5-3.1-3-6.7 .6-.8 1.3-2.3 1.8-3.1 1.5-3.1 3.2-3.8 6.3-2.7 7.3 2.7 8.6 2.9 14.3 2.9 12.9 0 19.9-6.1 21.8-18.8 1.7-11.8-6-24.5-27.2-44.6-8.1-7.8-11.7-15.2-11.9-24.9-.1-7.5 1.2-11.4 5.3-16.1 3.7-4.1 11.6-6.9 17.9-6.3 .7 0 3.3.3 5.7.5 9.2.8 10.7 1.7 10.1 5.9-.2 1-.4 3-.5 4.4-.3 4-1.2 4.5-5.5 3.2-.8-.2-2.1-.3-3-.4-.9 0-2.3-.1-3.2-.2-6.5-1.2-11.9 2.5-11.8 8.2 0 6.6 1.7 9.3 13.4 21 4.9 4.9 9.7 9.9 10.6 11 .9 1.2 2.7 3.2 3.9 4.5 9.6 10.6 13.8 26.9 10.3 40.1-.9 3.1-3 8.3-4 9.7-4.9 6.9-9.7 11.1-16 13.8-3.9 1.7-16.3 3-21.7 2.2zm-115.6-.4c0 0-1.3-.2-2.7-.3-1.4-.2-3.5-.6-4.6-.9-1.1-.4-3.8-1.1-6.1-1.6-12.9-3.3-26.6-10-33.3-16.4-.6-.6-2-1.8-3-2.6-2.1-1.6-6-5.7-7.3-7.6-.4-.6-1.4-1.9-2.1-2.8-.7-1-1.7-2.7-2.3-3.7-.6-1.1-1.5-2.6-2-3.4-.5-.8-1.2-2.2-1.6-3.1-.3-.9-1-2.4-1.5-3.5-.5-1.1-1.2-2.9-1.6-4-.3-1.1-.7-2.6-1-3.2-.2-.6-.5-1.9-.6-2.9-.1-.9-.5-3.2-.9-5.1-1.5-8.5-1.6-20.3-.2-25.5 .2-.8.6-2.6.9-4.2 1.1-6.5 5.6-14.9 10.9-20.2 4.4-4.5 13.6-9.6 19.3-10.7 1.2-.3 2.8-.7 3.7-.9 3.8-1.2 19.5-1.7 22.9-.8 .6.2 2.2.4 3.7.6 5.5.6 6.1 1.5 4.8 7.6-.2 1.1-.5 2.6-.6 3.3-.4 1.8-1.3 2.8-2.7 2.8-1.5 0-6.4-.7-9.8-1.4-3.8-.8-5.7-.7-10.1.2-1.7.4-4.4 1-6.1 1.3-9 1.9-16.5 8.7-20.1 18-1.4 3.7-1.4 3.5-1.7 6.7-.2 1.5-.5 3.8-.8 5.1-.6 3-.6 4.4 0 8.6 .3 1.9.7 4.6.8 6.1 .4 3.3 1.9 9.2 3.2 12.2 .6 1.1 1.3 2.8 1.7 3.7 2.7 6.6 8.2 13.5 14.7 18.4 1.1.9 2.7 2.1 3.5 2.8 .8.7 2.5 1.8 3.8 2.4 1.2.7 2.9 1.7 3.8 2.2 2.6 1.7 12.9 5.4 13.9 5 1.3-.5 1.3 1.4 1.4-38.7 .1-35 .2-37.3.6-37.9 .9-1.4 1.6-1.6 7.2-1.7 6.5-.1 6.9.1 6.8 3.5-.1 1.2-.2 22.2-.3 46.7l-.2 44.6-.8.7c-.7.7-3.1 1.1-3.6.6zm766.4-.2c-.5-.2-.9-.6-1.1-1.2-.4-1.3-.4-117.4.1-118.5 .7-1.6 1.4-2 4.2-2.3 1.4-.2 3.4-.5 4.4-.6 5.6-.8 7.6-.9 15.2-.9 8.7 0 9.2.1 18.1 1.8 6.9 1.3 10.6 2.8 15.5 6.4 5.2 3.8 8.3 7.1 10 10.8 .5 1.1 1.4 2.7 1.9 3.5 2.9 4.9 4.2 13.3 4.2 28.5 0 2.9-.7 9.2-1.2 11.8-.4 1.6-.9 3.9-1.1 5.2-.3 1.3-.9 3.1-1.5 4.4-.6 1.1-1.3 3.2-1.7 4.6-2.3 9.4-12.5 22.5-23.5 30.5-1.1.8-3 2.1-4.1 2.9-4.5 3.3-14.9 7.9-22.4 10-1.2.4-2.7.9-3.4 1.1-1.6.5-12 2.5-12.8 2.3 0 0-.4-.1-.8-.3zm-533.4-.5c-.8-.9-1.1-118.1-.2-119.6 .6-1.3 1.7-1.7 6-2.4 10.6-1.7 27.3-1.5 34.6.4 2.1.5 5 1.3 6.5 1.7 12.5 3.2 24 16.7 25.4 29.6 .1 1.3.4 3.3.5 4.7 .8 6.9.8 7.7.5 12.2-.6 9.4-1.1 13.2-2.2 17.1-.3 1.3-1 3.7-1.4 5.5-2.2 8.6-9 20-16.3 27.4-8 8.1-15 12.7-27.4 18-9.3 4-24.3 7.1-26 5.4zm93-1.1c-4-.2-4.4-.3-5.2-1.9-.8-1.6-.8-114.4 0-116.1 .9-2.1-1-1.9 26.2-1.9 27.2 0 25.2-.2 26.4 1.9 .6 1 .7 6.5.2 8.3-.7 2.4.6 2.3-18.9 2.4-18.9.1-18.3.1-19.3 1.6-.6.9-.8 4.8-.3 5.9 .8 2-1 1.9 27.2 2 27.6.1 25.9 0 26.6 1.7 .5 1.1.6 8.4 0 9.7-.7 1.8 1 1.7-27.1 1.9-26.8.1-25.7 0-26.5 1.3-.5.7-.4 67.4.1 68.5 .7 1.6-.3 1.5 21.4 1.6 21.8.2 20.7.1 21.6 1.6 .4.8.4 8.8-.1 9.9-.6 1.4.3 1.4-22 1.4-11.4 0-22 .1-23.6.2-1.7.1-4.7.1-6.7 0zm574.9-.1c-.7-.1-11.3-.2-23.7-.2-24.3.1-22.8.1-23.6-1.4-.7-1.2-.7-115.6 0-116.7 1.1-1.6-.8-1.5 26.2-1.5 22.9 0 24.4 0 25.1.4 1.4.9 1.5 1.4 1.5 5.8 0 6.9 1.9 6.2-19.3 6.4-20.9.2-19.5-.2-19.5 4.9 0 4.9-2.8 4.5 27.1 4.6 27.2.1 25.6 0 26.5 1.5 .5 1 .9 8.4.5 9.7-.6 2 1.2 1.9-27.2 2.1-27.7.1-26.1 0-26.7 1.6-.5 1.2-.3 67.5.1 68.4 .8 1.4-.1 1.3 21.3 1.4 24.4.2 22.2-.4 22.2 6.7 0 6.1-.3 6.5-5.7 6.5-1.9 0-4.1 0-4.8-.2zm-1101.6-.3c-3.4-.7-4.4-2.1-5.1-6.5-.2-1.3-.7-3.1-1-4.2-.4-1-1.3-4.2-2.1-7.2-.7-3-1.7-6.4-2-7.6-.4-1.3-1.9-7.1-3.4-12.9-1.5-5.8-3.1-12-3.6-13.7-.5-1.8-1.2-4.5-1.6-6-.4-1.6-1-4-1.4-5.4-.5-1.4-.9-3.2-1.1-4.1-.1-.8-.4-2.2-.7-3-.3-.8-1.2-4.2-2-7.7-.8-3.4-1.8-7.1-2.1-8.1-1-3.1-1.8-6.3-2.1-8-.2-.9-.9-3.5-1.6-5.7-.6-2.3-1.6-5.9-2.1-8-.5-2.2-1.2-4.8-1.5-6-1.4-4.9-1.1-5.2 6.2-5.2 7.1 0 7.4.2 8.5 4.4 .2 1.2.7 3.1 1.1 4.4 .3 1.2.8 3.1 1 4.1 .1 1 .5 2.5.8 3.3 .3.7.9 2.6 1.2 4.1 .3 1.5 1 4.3 1.6 6.2 .5 2 1.1 4.3 1.3 5.1 .1.9.5 2.7.9 3.9 .4 1.3 1 3.6 1.4 5.3 1.1 4.9 2.1 9 2.5 10.1 .3.6.8 2.7 1.3 4.6 .5 2 1.3 5.2 1.9 7.1 .5 2 1.8 7.2 2.8 11.4 3.4 13.8 3.4 14 4.5 14.3 1.3.4 1.8-.6 2.9-5.4 .4-1.9 1-4.1 1.3-5 .4-.9.8-2.4.9-3.4 .3-1.7 1.5-6.2 3.2-12.1 .4-1.6.9-3.4 1-4.1 .1-.7.4-2.3.8-3.7 .3-1.3 1.1-4.2 1.7-6.4 .6-2.3 1.7-6.8 2.6-9.9 .8-3.2 1.7-6.7 1.9-7.9 .2-1.2.7-3.1 1.1-4.4 .4-1.2 1-3.4 1.3-4.8 .2-1.4.7-3.5 1.1-4.5 .3-1.1.9-3.3 1.2-4.8 2.7-12 2.7-12.1 10.2-11.9 7.3.1 7.4.3 3.9 13-.5 2.1-1.3 4.6-1.6 5.5-.3 1-.8 2.8-1.1 3.9-.3 1.2-.8 2.9-1.1 3.7-.3.9-.9 3-1.2 4.7-.2 1.7-.8 4-1.1 5.2-.3 1.1-1.4 4.9-2.3 8.4-1 3.5-2 7.2-2.3 8.1-.2 1-.6 2.7-.9 3.9-.3 1.8-1.3 5.4-3.4 12.9-.4 1.3-1.1 4.3-1.7 6.5-.5 2.2-1.3 5-1.7 6.2-.9 2.7-1.7 5.6-2 7.9-.3 1.7-2.2 8.7-3.2 11.7-.3 1.1-.8 2.8-1 3.9-.2 1.1-.6 2.9-1 3.9-.3 1-.8 3-1.1 4.3-.6 3.2-1.3 4.7-2.5 5.2-1.2.6-7.6.8-9.5.4zm223.9.1c-5.5-.2-6.3-.8-5.3-4.2 .4-1.4 1.3-4.8 3-11.4 .5-1.8 1.1-4.3 1.5-5.6 .3-1.4.9-3.7 1.2-5.2 .8-3.3 2.2-8.2 3.5-12.5 .5-1.8 1.5-5.5 2.1-8.2 .6-2.8 1.5-6.3 2-7.9 .4-1.6 1.3-5.1 2-7.8 .6-2.6 1.7-6.7 2.4-8.9 .7-2.3 2-7.4 3-11.3 .9-3.9 2.3-8.8 2.9-10.9 .7-2 1.6-5.4 2-7.5 .5-2 1.2-4.8 1.6-6.1 .4-1.4.9-3.3 1.1-4.4 .7-3.9 2-6.8 3.3-7.5 .9-.4 8.6-.5 9.7-.1 1.3.5 2.1 1.5 2.6 3.4 .3.9.9 2.7 1.3 4 .4 1.2 1 3.5 1.3 5 .3 1.5.9 3.6 1.2 4.7 .4 1 1 3.3 1.3 5 .3 1.7 1 4 1.4 5.1 .4 1.1.9 2.9 1.1 4.1 .2 1.1.7 3.1 1 4.3 .4 1.3 1.2 4.2 1.8 6.7 .6 2.4 1.5 5.7 2 7.3 .5 1.7 1.5 5.4 2.3 8.4 2.4 9.5 2.7 10.9 3.1 11.8 .2.4.6 1.8.8 2.9 .4 2.3 2.4 9.8 3.2 11.9 .2.8.6 2.4.8 3.6 .5 2.5 1.8 7.4 2.2 8.1 .5 1 4.9 18.9 4.9 20 .1 2.6-1.1 3.2-6.9 3.3-5.6 0-6.7-.6-7.5-4.7-1.3-6.2-2.3-7.9-4.6-8.4-2.4-.5-36.1-.2-37.1.3-1.6.9-2.6 3.2-3.7 8.4-1 4.4-1.3 4.6-8.5 4.3zm720.9-.1c-1-.5-1.5-1.3-4.3-7.1-1.4-2.8-2.7-5.5-2.9-5.9-.3-.4-1.3-2.5-2.3-4.5-1.1-2.1-2.7-5.3-3.7-7.2-1.8-3.5-5.1-10.5-6.2-13.1-.7-1.7-1.5-3.2-3-5.3-.4-.7-1.2-2.3-1.8-3.6-.5-1.3-1.6-3.5-2.4-5-.8-1.4-3-5.8-4.9-9.7-4.3-8.8-4.1-8.6-8.2-8.6-2.7 0-3.8.3-4.4 1.4-.3.5-.4 7.4-.4 33.6-.2 33.1-.2 33.1-.7 33.8-.8 1.1-1.8 1.3-7.1 1.3-5.5 0-6.3-.3-6.6-2.8-.1-.6-.1-26.6-.1-57.7 .1-56.7.1-56.7.6-57.4 .9-1.3.5-1.3 20.3-1.1 20.4.2 19.1.1 26.6 1.9 6.3 1.5 7.7 2.2 12 6.4 3 2.9 3.8 4.3 4.9 8.4 1.6 6.1.4 14.1-2.9 18.8-4 5.7-8.4 8.3-18.9 11.1-3.7 1-3.6 1.6 1.7 11.9 2.3 4.4 4.4 8.7 4.6 9.4 .3.8 1.4 2.9 2.3 4.7 1 1.8 2.4 4.5 3 6 .7 1.5 1.8 3.6 2.5 4.6 1.4 2 4.3 7.5 8 15 3.7 7.5 4.7 9.5 6.9 13.9 2.9 5.5 2.8 6.7-.5 6.8-5.4.3-11.5.2-12.1 0zm-889.4-.3c-2-.8-1.8 5.8-1.8-59.2-.1-62.3-.2-58.5 1.2-59.5 1.1-.8 49.2-.8 50.4 0 1.3 1 1.5 1.9 1.5 5.6 0 7.1 1.7 6.6-18.9 6.5-19.3 0-18.7-.1-19.6 1.9-.7 1.6-.7 5.6.1 6.5 .9 1.1 1.6 1.1 27.1 1.1 26.8 0 25.7-.1 26.4 1.5 .6 1.5.5 9.3-.2 10.2-1.1 1.5.3 1.4-26.9 1.6-27 .1-25.6 0-26.4 1.5-.5 1.1-.5 67 .1 68.4 .7 1.6 0 1.5 20.9 1.6 10.4 0 19.3.1 19.8.2 1.8.4 2.2 1.1 2.5 4.2 .5 6 .3 7-1.4 7.9-1.1.5-53.5.6-54.8 0zm547.9.1c-2.1-.8-1.9 5.3-2-57-.1-59.1-.1-60.1 1.1-61.2 1.3-1.3 9.6-1.8 11.7-.7 2 .9 1.8-4.6 1.9 52.8 .1 56.3 0 51.9 1.7 53.1 .9.5.9.5 17.9.6 18.3 0 18.3 0 19.3 1.3 .7 1 .9 8.3.2 9.6-1 1.9.6 1.8-26.6 1.8-18.2 0-24.6-.1-25.2-.3zm146.4-.3c-1.2-.8-1.6-1.7-2.4-5.6-.5-2-1-4-1.2-4.6-.2-.6-.7-2.4-1.1-4.1-.4-1.6-1-3.7-1.3-4.5-.2-.8-1.1-3.9-1.9-6.8-.7-3-1.6-6.3-1.9-7.4-.4-1.1-1.1-4-1.6-6.4-.6-2.4-1.2-5-1.5-5.7-.3-.7-1.3-4.4-2.3-8.3-1.9-7.5-3.3-12.7-4.6-17.5-.5-1.6-1-3.8-1.3-5-.2-1.2-1.2-5.2-2.2-8.9-1-3.7-2.6-9.7-3.5-13.4-2-7.9-3.2-12.6-4-15.4-1.4-4.9-1-5.3 6.2-5.3 6.8 0 7.3.3 8.5 5.1 .4 1.4 1.1 4.4 1.8 6.8 .6 2.3 1.3 5.2 1.6 6.5 .3 1.2 1.1 4.1 1.7 6.5 1.4 4.8 2.5 9.3 3.6 13.9 .4 1.8 1.2 5 1.8 7.1 1.8 6.3 4.6 17.4 5.3 20.7 .3 1.7 1 4.4 1.5 6.1 .5 1.6 1.5 5.1 2.1 7.7 3 11.5 3.7 11.1 7.6-4.4 .4-1.4 1.3-5.2 2.1-8.4 .8-3.1 1.7-6.7 1.9-7.8 .2-1.1.7-2.9 1.1-3.9 .3-1 .8-3.1 1.2-4.8 .3-1.6.9-3.9 1.2-5.1 1-3.1 2.4-8.8 3.5-13.9 .3-1.5.8-3.2 1-3.9 .3-.7.8-2.8 1.3-4.6 .4-1.8 1.5-6 2.5-9.5 .9-3.4 1.9-7.5 2.2-9.1 1-4.8 1.4-5 7.9-5 7.4 0 8.1.8 5.9 7.4-.5 1.3-1.3 4.2-1.8 6.3-.5 2.2-1.4 5.9-2.1 8.3-1.8 6.6-3 11.2-3.5 13.4-.3 1.1-.8 2.8-1.1 3.9-.4 1-1.1 3.6-1.6 5.7-.6 2.1-1.3 4.7-1.5 5.6-.3 1-1 3.7-1.6 6.1-1.1 4.9-2.7 10.5-3.6 13.3-.3 1-1.2 4.3-1.9 7.3-.6 3-1.3 5.7-1.5 6-.2.4-2 7.3-2.9 11.2-.3 1-.8 2.9-1.1 4.1-.4 1.3-1 3.6-1.3 5.3-.4 1.6-1.1 4.1-1.5 5.5-.5 1.3-1.2 3.7-1.6 5.1-1.6 5-1.6 5-8.5 5-4.5 0-4.8 0-5.6-.6zm57.1.3c-1.8-.9-1.7 4.3-1.7-52.7 0-28 .1-52.2.2-53.9 0-1.6 0-4.7 0-6.7-.2-4.2-.1-4.6 1.4-5.6 1-.7 49.5-.7 50.7 0 1.3.7 1.4 1.4 1.2 6-.3 6.8 1.7 6.2-19.2 6.2-18.6 0-18.1 0-18.9 1.6-.5 1.1-.6 4.3-.2 5.6 .7 2.3-1.5 2.2 27.1 2.3 28.2.1 25.8 0 27 2 .7 1.2.7 8.2 0 9.4-.9 1.8.8 1.7-27.3 1.9-27.4.1-25.9 0-26.6 1.4-.4.7-.7 64.2-.4 67 .1 1 .4 1.6.9 2.1l.7.8 20 .1c24.4.2 22.1-.5 21.9 6.7-.2 4.4-.3 5-1.7 5.6-1.3.6-54 .8-55.1.2zm-353.5-15.7c1.8-.6 4.2-1.5 5.2-2.1 1-.5 3.3-1.7 5.1-2.7 3.7-2 4.9-2.8 10.3-7.6 2.8-2.5 6.7-6.9 7.9-9 .6-.9 1.6-2.5 2.2-3.5 5.8-8.6 9.3-24.5 8-36.2-1.5-14.7-6.5-23.1-16.7-28.1-3.7-1.9-13.9-4-17.3-3.7-.9.1-2.9.3-4.4.4-4.1.3-5.1.9-5.6 3.2-.3 1.1-.4 88.5-.1 89.1 .1.4 1.3 1.2 1.9 1.2 .1 0 1.6-.5 3.5-1zm531.4.5c.7-.3 2.4-1 4-1.6 4.9-1.9 13.2-6.9 16.7-10.2 2.3-2 7.9-8.3 8.8-9.8 .5-.8 1.7-2.7 2.6-4.1 2.3-3.5 4.2-8.5 6.9-18 1.4-5 1.4-16.4.1-23.3-2.9-15-10-22.3-24.4-25.2-10.2-2-17-1.7-18.5.9-.5.9-1 87-.5 89.8 .3 1.9 2.1 2.5 4.3 1.5zm-713.7-9.2c2.2-1.6.4-5.6-2.8-6.3-2.7-.6-26.4-.2-27.5.4-2.1 1.2-2.9 5.2-1.1 6.1 1.3.6 30.5.5 31.4-.2zm-5-17.7c1.8-.9 1.6-3.6-.7-11.2-.6-1.8-1.3-4.6-1.6-6.3-.5-3.1-.6-3.4-2.5-9.7-.6-2.1-1.6-5.6-2.1-7.8-3.1-13.6-4.2-13.9-7.3-1.7-.4 1.9-1.4 5.6-2.2 8.2-.7 2.5-1.9 7-2.6 9.8-.7 2.9-1.6 6.5-2.1 8.1-2.4 9-2.4 9.7-.7 10.6 1 .5 20.7.6 21.8 0zm655.1-42.1c9.9-1.5 13.9-4.6 14.1-10.9 .3-6.5-3-9.3-11.8-10.2-1.9-.2-4.7-.5-6.1-.7-1.5-.1-5.3-.2-8.8-.2-8.9.2-8.2-.8-8.2 11.2-.1 10.4 0 10.6 2.6 11.3 1.8.4 14.5.1 18.2-.5z"/>
</svg>
